<?xml version="1.0" standalone="no"?>
<!DOCTYPE svg PUBLIC "-//W3C//DTD SVG 20010904//EN"
 "http://www.w3.org/TR/2001/REC-SVG-20010904/DTD/svg10.dtd">
<svg version="1.0" xmlns="http://www.w3.org/2000/svg"
 width="500.000000pt" height="500.000000pt" viewBox="0 0 500.000000 500.000000"
 preserveAspectRatio="xMidYMid meet">

<g transform="translate(0.000000,500.000000) scale(0.100000,-0.100000)"
fill="#000000" stroke="none">
<path d="M1440 4053 c-35 -13 -60 -48 -71 -102 -25 -122 18 -480 106 -867 17
-77 25 -150 29 -249 5 -184 33 -285 124 -457 2 -4 -10 -14 -27 -23 -81 -41
-107 -221 -60 -410 7 -28 29 -93 51 -145 34 -83 38 -104 38 -180 0 -47 5 -128
10 -180 8 -86 7 -99 -11 -137 -49 -102 33 -202 148 -180 20 4 32 -2 50 -23 40
-48 102 -65 228 -64 84 1 120 5 148 19 34 16 71 51 79 75 2 6 44 5 110 -2 82
-9 132 -9 210 -1 l103 12 28 -35 c48 -57 78 -67 207 -68 131 -1 175 10 221 56
26 27 38 31 88 32 66 2 107 23 121 62 14 37 12 97 -4 120 -12 15 -14 53 -9
209 4 136 3 201 -6 227 -15 44 -87 113 -147 139 -34 16 -44 25 -44 44 0 13
-11 57 -23 98 -16 49 -21 81 -16 95 10 25 22 28 38 8 6 -8 35 -24 64 -37 82
-36 158 -31 290 19 60 22 111 43 114 46 22 22 -53 130 -115 164 l-43 24 41 45
c23 24 48 59 55 77 24 58 68 245 61 262 -6 14 -19 16 -94 12 l-88 -5 3 111 c3
77 16 169 43 301 90 439 120 717 90 826 -21 76 -94 104 -211 80 -107 -22 -351
-157 -521 -288 l-57 -44 -88 17 c-115 23 -347 23 -458 0 l-80 -16 -35 26
c-192 142 -439 280 -540 303 -48 11 -125 13 -150 4z m183 -62 c103 -36 284
-139 422 -241 l59 -44 -58 -19 c-57 -19 -58 -19 -79 1 -32 28 -131 89 -217
133 -127 65 -216 73 -239 23 -25 -56 -10 -262 39 -509 l19 -100 -23 -70 -24
-70 -10 40 c-71 270 -125 756 -92 834 22 53 90 61 203 22z m1876 14 c16 -8 31
-25 35 -37 11 -43 6 -244 -10 -363 -17 -130 -81 -482 -91 -498 -3 -5 -17 26
-31 69 l-24 79 26 145 c44 242 52 398 24 452 -32 63 -208 4 -415 -138 l-62
-43 -46 15 c-25 9 -45 19 -45 23 0 11 140 109 241 169 103 62 201 108 272 127
68 18 92 18 126 0z m-824 -310 c385 -62 644 -303 710 -660 21 -110 16 -318 -9
-410 -41 -153 -154 -325 -279 -424 -83 -67 -241 -146 -352 -177 -114 -32 -307
-43 -422 -24 -317 50 -579 235 -697 491 -59 127 -70 185 -71 359 0 188 15 261
86 405 115 236 333 388 629 440 103 18 296 18 405 0z m495 -134 c1 9 4 8 11
-5 8 -13 13 -15 19 -6 5 8 9 7 13 -4 11 -27 -37 -19 -64 11 -22 25 -22 26 -1
9 17 -15 22 -16 22 -5z m45 -51 c3 -6 -1 -7 -9 -4 -18 7 -21 14 -7 14 6 0 13
-4 16 -10z m-1557 -1241 c45 -150 59 -187 86 -228 17 -25 46 -53 63 -61 20 -9
31 -20 28 -28 -3 -8 -5 -21 -5 -31 0 -11 -18 -26 -51 -42 -28 -13 -68 -40 -89
-60 l-38 -37 -22 51 c-33 77 -70 233 -70 297 0 93 41 198 74 187 6 -2 17 -23
24 -48z m196 -164 c18 -46 10 -85 -18 -85 -30 0 -81 83 -110 179 -9 30 -16 56
-16 59 0 2 29 -21 64 -52 44 -39 69 -70 80 -101z m1253 -151 c14 -47 17 -101
17 -259 0 -212 -13 -323 -39 -338 -14 -7 -11 -14 19 -47 59 -66 57 -146 -4
-187 -18 -13 -37 -23 -41 -23 -5 0 -14 19 -20 43 l-12 42 -11 -44 c-13 -49
-23 -54 -93 -44 l-43 6 0 44 c0 53 -16 49 -25 -7 -6 -36 -10 -40 -28 -35 -42
12 -67 52 -67 107 0 48 3 54 47 94 l47 44 -31 6 c-34 7 -38 18 -50 147 l-5 57
59 64 c67 71 165 215 221 323 20 39 38 70 39 69 2 -2 11 -30 20 -62z m-1074
-185 c31 -47 87 -118 125 -159 l67 -73 -9 -88 c-8 -84 -10 -89 -32 -89 -37 0
-37 -17 1 -47 60 -48 71 -136 22 -180 -40 -36 -51 -34 -68 16 l-16 46 -7 -46
-7 -46 -56 -7 c-31 -4 -58 -5 -60 -2 -3 2 -7 23 -10 45 -7 52 -19 52 -28 1 -4
-22 -8 -40 -9 -40 -2 0 -17 5 -35 11 -37 13 -61 53 -61 104 0 44 14 72 49 102
24 21 24 24 10 36 -49 38 -58 493 -13 627 3 9 19 -12 42 -55 21 -39 63 -109
95 -156z m1221 28 c16 -11 38 -41 49 -66 18 -41 19 -57 13 -180 -9 -171 -13
-189 -39 -193 -32 -5 -31 -24 3 -38 17 -7 35 -21 40 -31 24 -45 0 -109 -42
-109 -12 0 -18 7 -18 24 0 36 -17 40 -24 6 -8 -45 -23 -36 -30 19 -3 27 -17
64 -30 83 -22 33 -22 35 -9 123 8 50 15 160 16 247 2 174 -3 166 71 115z
m-1444 -89 c0 -68 7 -176 15 -241 l14 -118 -25 -46 c-13 -26 -24 -63 -24 -84
0 -48 -15 -50 -33 -6 l-14 32 -7 -32 c-4 -18 -14 -33 -21 -33 -16 0 -45 27
-46 43 0 7 -2 21 -4 31 -4 19 31 59 70 83 19 11 18 12 -11 18 -31 7 -31 7 -38
88 -3 45 -6 125 -6 178 0 83 3 100 23 130 21 32 80 79 98 79 5 0 9 -55 9 -122z
m918 -288 c11 -87 11 -102 -3 -123 -9 -14 -19 -44 -23 -68 -7 -41 -10 -44 -47
-51 -51 -9 -248 -10 -308 -2 -44 6 -45 7 -51 48 -4 23 -15 55 -25 72 -16 26
-17 39 -9 90 5 32 11 73 14 90 l4 30 62 -30 c54 -27 73 -31 143 -31 73 0 87 3
150 36 39 20 72 37 76 37 3 1 11 -43 17 -98z"/>
<path d="M1852 3292 c-12 -2 -40 -20 -61 -40 -48 -46 -55 -83 -49 -255 4 -104
9 -130 31 -180 35 -76 110 -149 184 -178 107 -41 250 -24 324 38 16 14 31 24
32 22 1 -2 11 -22 23 -43 17 -33 45 -55 102 -83 9 -4 -30 -64 -47 -73 -30 -15
-104 -12 -129 6 -13 9 -28 26 -33 38 -10 23 -8 7 12 -104 5 -30 13 -107 18
-170 9 -131 16 -153 62 -198 95 -92 271 -71 340 42 15 25 19 50 19 129 0 55 5
108 12 120 6 12 15 48 19 82 4 33 10 74 14 90 l6 30 -16 -27 c-20 -36 -44 -48
-95 -48 -52 0 -76 13 -95 50 -19 37 -19 37 8 44 44 11 94 72 88 109 -2 11 3 9
63 -27 180 -109 397 -40 490 154 30 64 31 68 31 215 0 141 -1 152 -24 189 -42
68 -71 74 -333 73 -213 -2 -228 -3 -255 -23 -50 -37 -73 -81 -73 -140 l0 -54
-45 0 -45 0 0 43 c0 64 -36 127 -87 153 -40 20 -57 22 -255 21 -117 -1 -223
-3 -236 -5z m464 -57 c51 -21 64 -61 64 -200 l0 -115 -52 -26 c-29 -15 -91
-64 -139 -110 -123 -118 -90 -108 42 12 44 40 126 90 135 81 10 -10 -52 -111
-89 -142 -149 -127 -368 -82 -454 93 -26 52 -28 68 -31 193 -6 224 -1 228 291
229 152 0 206 -3 233 -15z m767 6 c14 -6 35 -20 46 -32 19 -21 21 -34 21 -173
0 -137 -2 -156 -24 -201 -84 -181 -310 -229 -456 -98 -44 40 -99 127 -87 139
12 12 80 -29 162 -100 49 -42 92 -76 97 -76 4 0 -30 36 -75 80 -51 49 -104 90
-139 107 l-57 28 0 125 c-1 205 6 210 291 210 108 0 208 -4 221 -9z m-565
-272 l3 -44 -46 0 -45 0 0 42 c0 45 8 52 55 48 28 -1 30 -4 33 -46z m21 -119
l17 -45 -82 0 -81 0 13 38 c20 57 22 58 71 55 43 -3 46 -5 62 -48z m-2 -399
c12 -6 38 -11 57 -11 l36 0 0 -137 c0 -119 -3 -142 -20 -170 -57 -94 -212 -90
-279 8 -22 32 -23 40 -18 162 2 70 6 130 9 132 2 2 29 5 60 7 31 2 54 5 52 7
-2 3 6 15 18 28 21 23 22 23 42 4 12 -10 31 -24 43 -30z"/>
<path d="M2047 3092 c-15 -9 -34 -35 -43 -59 -16 -40 -16 -46 1 -88 28 -76
100 -97 155 -47 55 48 51 146 -8 192 -30 24 -68 25 -105 2z m108 -52 c0 -28
-27 -39 -50 -20 -21 18 -1 52 28 48 16 -2 22 -10 22 -28z m-48 -76 c3 -8 1
-20 -5 -26 -15 -15 -43 8 -35 28 7 19 32 18 40 -2z"/>
<path d="M2810 3097 c-30 -15 -60 -71 -60 -113 0 -65 67 -124 126 -110 82 21
105 155 36 213 -30 26 -65 29 -102 10z m44 -43 c22 -21 3 -56 -27 -52 -29 4
-37 54 -10 61 10 3 19 5 20 6 1 0 9 -6 17 -15z m34 -97 c4 -20 -25 -34 -40
-19 -15 15 -1 44 19 40 10 -2 19 -11 21 -21z"/>
<path d="M2455 2451 c4 -7 7 -59 6 -116 -2 -113 7 -174 20 -140 4 11 8 68 8
126 1 97 -1 108 -21 125 -12 10 -18 13 -13 5z"/>
</g>
</svg>
